<svg aria-hidden="true" style="position:absolute;width:0;height:0;overflow:hidden" xmlns="http://www.w3.org/2000/svg"><defs><symbol id="arrow" viewBox="0 0 18 32"><path fill="#384564" style="fill:var(--color1, #384564)" d="M17.17.71c.83.92.8 2.37-.07 3.23L6 15.46a.77.77 0 0 0 0 1.07l11.1 11.52c.87.87.9 2.32.07 3.23-.83.93-2.2.96-3.07.08L.7 17.72c-.9-.91-.93-2.4-.08-3.35L14.1.64a2.1 2.1 0 0 1 3.07.07z"/></symbol><symbol id="bookmark" viewBox="0 0 25 32"><path fill="none" stroke="#70778b" style="stroke:var(--color2, #70778b)" stroke-width="2.78" d="M1.4 5.57a3.71 3.71 0 0 1 3.7-3.71h14.84a3.71 3.71 0 0 1 3.71 3.7v22.26a1.86 1.86 0 0 1-3.12 1.35l-6.74-6.3a1.85 1.85 0 0 0-2.53 0l-6.75 6.3a1.86 1.86 0 0 1-3.12-1.35V5.57z"/></symbol><symbol id="location" viewBox="0 0 23 32"><path fill="#878d9d" style="fill:var(--color3, #878d9d)" d="M11.56 32S0 21.28 0 12.44 5.17 0 11.56 0C17.94 0 23.1 3.6 23.1 12.44S11.56 32 11.56 32zm0-14.22a6.22 6.22 0 1 0 0-12.45 6.22 6.22 0 0 0 0 12.45z"/></symbol><symbol id="share" viewBox="0 0 30 32"><path fill="#70778b" style="fill:var(--color2, #70778b)" d="m21.66 23.86-11.4-6.67c.08-.37.14-.74.14-1.13s-.06-.75-.14-1.12l11.28-6.6a4.77 4.77 0 0 0 8.06-3.52 4.8 4.8 0 1 0-9.46 1.12l-11.28 6.6A4.77 4.77 0 0 0 .8 16.07a4.8 4.8 0 0 0 8.06 3.52l11.4 6.69A4.69 4.69 0 0 0 24.8 32a4.69 4.69 0 0 0 0-9.4c-1.22 0-2.3.49-3.14 1.25z"/></symbol><symbol id="star" viewBox="0 0 34 32"><path fill="#38415d" style="fill:var(--color4, #38415d)" d="M11.9 8.16C13.2 5.2 15.69 0 16.93 0c1.8 0 5.73 10.1 5.73 10.1s3.65.33 6.6.65c1.56.17 4.35.44 4.52 1.3.04.19-.18.95-.6 1.48-1.72 2.26-6.2 7.1-6.2 7.1s.24 2.3.46 4.84c.14 1.63.52 4.94.38 5.54-.15.65-.42.83-.7.93-.73.27-2.43-.77-4.41-1.72-2.7-1.3-5.74-2.68-5.74-2.68s-2 1.05-4.37 2.07c-2.54 1.09-5.1 2.89-6.18 2.26-.67-.4-.17-3.49.08-6.24.25-2.6.45-4.96.45-4.96s-1.48-1.75-3.22-3.62c-1.87-2.01-4.15-4.2-3.65-5 .37-.6 2.07-.92 4.93-1.27 3.03-.38 6.06-.65 6.06-.65s.33-.8.85-1.97z"/></symbol></defs></svg>