<svg width="19" height="20" fill="none" xmlns="http://www.w3.org/2000/svg"><g clip-path="url(#a)"><path fill-rule="evenodd" clip-rule="evenodd" d="m13.54 14.91-7.13-4.17c.05-.23.09-.46.09-.7 0-.24-.04-.47-.09-.7l7.05-4.13a2.98 2.98 0 0 0 5.04-2.2 3 3 0 1 0-5.91.7L5.54 7.84a2.98 2.98 0 0 0-5.04 2.2 3 3 0 0 0 5.04 2.2l7.12 4.18A2.93 2.93 0 0 0 15.5 20a2.93 2.93 0 0 0 0-5.86c-.76 0-1.44.3-1.96.77Z" fill="#70778B"/></g><defs><clipPath id="a"><path fill="#fff" d="M.5 0h18v20H.5z"/></clipPath></defs></svg>