<!-- Generated by IcoMoon.io -->
<svg version="1.1" xmlns="http://www.w3.org/2000/svg" width="34" height="32" viewBox="0 0 34 32">
<title>star</title>
<path fill="#38415d" d="M11.909 8.159c1.3-2.948 3.771-8.159 5.009-8.159 1.797-0.002 5.735 10.108 5.735 10.108s3.645 0.318 6.591 0.644c1.564 0.172 4.356 0.436 4.531 1.298 0.037 0.187-0.187 0.949-0.596 1.481-1.73 2.258-6.218 7.095-6.218 7.095s0.246 2.311 0.465 4.839c0.141 1.636 0.521 4.949 0.383 5.541-0.15 0.652-0.419 0.83-0.699 0.933-0.731 0.267-2.429-0.77-4.412-1.719-2.701-1.296-5.736-2.681-5.736-2.681s-2.002 1.047-4.376 2.069c-2.536 1.092-5.103 2.891-6.175 2.258-0.669-0.396-0.173-3.486 0.084-6.236 0.241-2.594 0.449-4.964 0.449-4.964s-1.487-1.746-3.219-3.612c-1.871-2.018-4.151-4.196-3.657-4.996 0.373-0.604 2.074-0.928 4.93-1.282 3.035-0.377 6.066-0.644 6.066-0.644s0.33-0.811 0.843-1.975z"></path>
</svg>
